<svg width="64" height="64" viewBox="0 0 64 64" fill="none" xmlns="http://www.w3.org/2000/svg">
  <g clip-path="url(#clip0_2515_3)">
    <path d="M32 64C49.6731 64 64 49.6731 64 32C64 14.3269 49.6731 0 32 0C14.3269 0 0 14.3269 0 32C0 49.6731 14.3269 64 32 64Z" fill="#F5F5F5"/>
    <path d="M9.67472 49.9773V20.7273H15.4915V24.3004H15.7546C16.0131 23.728 16.3871 23.1463 16.8764 22.5554C17.375 21.9553 18.0213 21.4567 18.8153 21.0597C19.6186 20.6534 20.6158 20.4503 21.8068 20.4503C23.358 20.4503 24.7891 20.8565 26.1001 21.669C27.4112 22.4723 28.4592 23.6864 29.244 25.3114C30.0288 26.9272 30.4212 28.9538 30.4212 31.3913C30.4212 33.7642 30.038 35.7678 29.2717 37.402C28.5146 39.027 27.4805 40.2596 26.1694 41.0998C24.8675 41.9308 23.4087 42.3462 21.793 42.3462C20.6481 42.3462 19.674 42.157 18.8707 41.7784C18.0767 41.3999 17.4258 40.9244 16.918 40.3519C16.4102 39.7702 16.0224 39.1839 15.7546 38.593H15.5746V49.9773H9.67472ZM15.4499 31.3636C15.4499 32.6286 15.6254 33.7319 15.9762 34.6737C16.3271 35.6154 16.8349 36.3494 17.4996 36.8757C18.1644 37.3928 18.9723 37.6513 19.9233 37.6513C20.8835 37.6513 21.696 37.3881 22.3608 36.8619C23.0256 36.3263 23.5288 35.5877 23.8704 34.646C24.2212 33.695 24.3967 32.6009 24.3967 31.3636C24.3967 30.1357 24.2259 29.0554 23.8842 28.1229C23.5426 27.1903 23.0394 26.4609 22.3746 25.9347C21.7099 25.4084 20.8928 25.1452 19.9233 25.1452C18.9631 25.1452 18.1506 25.3991 17.4858 25.907C16.8303 26.4148 16.3271 27.1349 15.9762 28.0675C15.6254 29 15.4499 30.0987 15.4499 31.3636Z" fill="#DC2626"/>
    <path d="M43.9382 50.4205C42.027 50.4205 40.3881 50.1573 39.0217 49.631C37.6644 49.114 36.5842 48.4077 35.7809 47.5121C34.9776 46.6165 34.456 45.6101 34.2159 44.4929L39.6726 43.7589C39.8388 44.1836 40.1019 44.5806 40.462 44.9499C40.8221 45.3192 41.2976 45.6147 41.8885 45.8363C42.4886 46.0671 43.218 46.1825 44.0767 46.1825C45.3601 46.1825 46.4173 45.8686 47.2482 45.2408C48.0884 44.6222 48.5085 43.5835 48.5085 42.1246V38.233H48.2592C48.0007 38.8239 47.6129 39.3825 47.0959 39.9087C46.5788 40.435 45.9141 40.8643 45.1016 41.1967C44.2891 41.5291 43.3196 41.6953 42.1932 41.6953C40.5959 41.6953 39.1417 41.326 37.8306 40.5874C36.5288 39.8395 35.4901 38.6992 34.7145 37.1665C33.9482 35.6246 33.565 33.6765 33.565 31.3221C33.565 28.9123 33.9574 26.8995 34.7422 25.2837C35.527 23.668 36.5703 22.4585 37.8722 21.6552C39.1832 20.8519 40.619 20.4503 42.1793 20.4503C43.3704 20.4503 44.3675 20.6534 45.1708 21.0597C45.9741 21.4567 46.6204 21.9553 47.1097 22.5554C47.6083 23.1463 47.9915 23.728 48.2592 24.3004H48.4808V20.7273H54.3391V42.2077C54.3391 44.0174 53.896 45.5316 53.0096 46.7504C52.1232 47.9691 50.8952 48.8832 49.3256 49.4925C47.7653 50.1112 45.9695 50.4205 43.9382 50.4205ZM44.0629 37.2635C45.0138 37.2635 45.8171 37.0281 46.4727 36.5572C47.1374 36.0771 47.6452 35.3938 47.9961 34.5075C48.3562 33.6119 48.5362 32.5408 48.5362 31.2944C48.5362 30.0479 48.3608 28.9677 48.0099 28.0536C47.6591 27.1303 47.1513 26.4148 46.4865 25.907C45.8217 25.3991 45.0138 25.1452 44.0629 25.1452C43.0934 25.1452 42.2763 25.4084 41.6115 25.9347C40.9467 26.4517 40.4435 27.1719 40.1019 28.0952C39.7603 29.0185 39.5895 30.0849 39.5895 31.2944C39.5895 32.5224 39.7603 33.5842 40.1019 34.4798C40.4528 35.3661 40.956 36.054 41.6115 36.5433C42.2763 37.0234 43.0934 37.2635 44.0629 37.2635Z" fill="#1F2933"/>
  </g>
  <defs>
    <clipPath id="clip0_2515_3">
      <rect width="64" height="64" fill="white"/>
    </clipPath>
  </defs>
</svg>
